<svg xmlns="http://www.w3.org/2000/svg" width="24" height="24" viewBox="0 0 24 24">
  <g id="absence_" data-name="absence " transform="translate(-133 -196)">
    <g id="calendar-remove_bulk" data-name="calendar-remove/bulk" transform="translate(133 196)">
      <g id="vuesax_bulk_calendar-remove" data-name="vuesax/bulk/calendar-remove">
        <g id="calendar-remove">
          <path id="Vector" d="M0,0H24V24H0Z" fill="none" opacity="0"/>
          <path id="Vector-2" data-name="Vector" d="M13.711,2.31V.75a.75.75,0,0,0-1.5,0v1.5h-6.5V.75a.75.75,0,0,0-1.5,0V2.31A4.248,4.248,0,0,0,0,6.56a.5.5,0,0,0,.5.53h16.92a.5.5,0,0,0,.5-.53A4.248,4.248,0,0,0,13.711,2.31Z" transform="translate(3.039 1.25)"/>
          <path id="Vector-3" data-name="Vector" d="M18,1.01V2.75a.985.985,0,0,1-1.14.98A6.108,6.108,0,0,0,16,3.66a5.51,5.51,0,0,0-5.5,5.5,6.176,6.176,0,0,0,.37,1.68,1,1,0,0,1-.95,1.32H5c-3.5,0-5-2-5-5V1A1,1,0,0,1,1,0H17A1.018,1.018,0,0,1,18,1.01Z" transform="translate(3 9.83)" opacity="0.4"/>
          <path id="Vector-4" data-name="Vector" d="M4,0A4,4,0,1,0,8,4,4,4,0,0,0,4,0ZM5.6,5.64a.748.748,0,0,1-1.06,0l-.53-.53-.55.55a.748.748,0,0,1-1.06,0,.754.754,0,0,1,0-1.06l.55-.55-.53-.53A.75.75,0,0,1,3.48,2.46l.53.53.5-.5A.75.75,0,0,1,5.57,3.55l-.5.5.53.53A.755.755,0,0,1,5.6,5.64Z" transform="translate(15 15)"/>
          <path id="Vector-5" data-name="Vector" d="M1,2a1.052,1.052,0,0,1-.71-.29A1.052,1.052,0,0,1,0,1,1.052,1.052,0,0,1,.29.291,1.009,1.009,0,0,1,1.2.021a.636.636,0,0,1,.18.06.757.757,0,0,1,.18.09l.15.12A1.052,1.052,0,0,1,2,1a1.052,1.052,0,0,1-.29.71l-.15.12a.757.757,0,0,1-.18.09.636.636,0,0,1-.18.06A1.5,1.5,0,0,1,1,2Z" transform="translate(7.5 12.999)"/>
          <path id="Vector-6" data-name="Vector" d="M1,1.987A1.052,1.052,0,0,1,.29,1.7,1.052,1.052,0,0,1,0,.987,1.052,1.052,0,0,1,.29.278a1.047,1.047,0,0,1,1.42,0A1.052,1.052,0,0,1,2,.987a1.052,1.052,0,0,1-.29.71A1.052,1.052,0,0,1,1,1.987Z" transform="translate(11 13.013)"/>
          <path id="Vector-7" data-name="Vector" d="M1,2a1.052,1.052,0,0,1-.71-.29A1.052,1.052,0,0,1,0,1,1.052,1.052,0,0,1,.29.289,1.032,1.032,0,0,1,.62.079a1,1,0,0,1,1.09.21A1.052,1.052,0,0,1,2,1a1.052,1.052,0,0,1-.29.71A1.052,1.052,0,0,1,1,2Z" transform="translate(7.5 16.501)"/>
        </g>
      </g>
    </g>
  </g>
</svg>
