<svg xmlns="http://www.w3.org/2000/svg" width="24" height="24" viewBox="0 0 24 24">
  <g id="briefcase" transform="translate(-108 -188)">
    <path id="Vector" d="M19.087,5.21c-.85-.94-2.27-1.41-4.33-1.41h-.24V3.76c0-1.68,0-3.76-3.76-3.76H9.237c-3.76,0-3.76,2.09-3.76,3.76v.05h-.24c-2.07,0-3.48.47-4.33,1.41a4.547,4.547,0,0,0-.86,3.59l.01.07.1,1.05a.218.218,0,0,0,.05.04c.33.22.67.44,1.03.64.14.09.29.17.44.25a17.165,17.165,0,0,0,5.5,1.88c.09.94.5,2.04,2.69,2.04s2.62-1.09,2.69-2.06a16.829,16.829,0,0,0,5.79-2.08c.06-.03.1-.06.15-.09a12.769,12.769,0,0,0,1.31-.85.121.121,0,0,0,.05-.05l.04-.36.05-.47c.01-.06.01-.11.02-.18A4.433,4.433,0,0,0,19.087,5.21Zm-8,6.85c0,1.06,0,1.22-1.23,1.22s-1.23-.19-1.23-1.21V10.81h2.46ZM6.907,3.8V3.76c0-1.7,0-2.33,2.33-2.33h1.52c2.33,0,2.33.64,2.33,2.33v.05H6.907Z" transform="translate(110.003 189.77)"/>
    <path id="Vector-2" data-name="Vector" d="M18.34.9l-.15.09A17.037,17.037,0,0,1,12.4,3.07c-.08.96-.5,2.06-2.69,2.06S7.1,4.04,7.02,3.09a16.694,16.694,0,0,1-5.5-1.88c-.15-.08-.3-.16-.44-.25C.72.76.38.54.05.32A.218.218,0,0,1,0,.28L.61,6.79c.21,1.99,1.03,4.04,5.43,4.04h7.62c4.4,0,5.22-2.05,5.43-4.05L19.72,0a.121.121,0,0,1-.05.05A12.461,12.461,0,0,1,18.34.9Z" transform="translate(110.16 199.4)" opacity="0.4"/>
    <path id="Vector-3" data-name="Vector" d="M0,0H24V24H0Z" transform="translate(108 188)" fill="none" opacity="0"/>
  </g>
</svg>
