<svg xmlns="http://www.w3.org/2000/svg" width="20" height="20" viewBox="0 0 20 20">
  <g id="clock" transform="translate(-475 -154.6)">
    <g id="clock_bulk" data-name="clock/bulk" transform="translate(475 154.6)">
      <g id="vuesax_bulk_clock" data-name="vuesax/bulk/clock">
        <g id="clock-2" data-name="clock">
          <path id="Vector" d="M16.733,8.367A8.367,8.367,0,1,1,8.367,0,8.367,8.367,0,0,1,16.733,8.367Z" transform="translate(1.633 1.633)" opacity="0.4"/>
          <path id="Vector-2" data-name="Vector" d="M3.936,7.489a.547.547,0,0,1-.31-.09L1.094,5.888A2.408,2.408,0,0,1,0,3.961V.612A.617.617,0,0,1,.612,0a.617.617,0,0,1,.612.612V3.961a1.207,1.207,0,0,0,.5.874L4.255,6.345a.611.611,0,0,1,.212.841A.629.629,0,0,1,3.936,7.489Z" transform="translate(9.13 5.703)"/>
          <path id="Vector-3" data-name="Vector" d="M0,0H20V20H0Z" fill="none" opacity="0"/>
        </g>
      </g>
    </g>
  </g>
</svg>
