<svg id="export" xmlns="http://www.w3.org/2000/svg" width="24" height="24" viewBox="0 0 24 24">
  <g id="vuesax_bulk_send-sqaure-2" data-name="vuesax/bulk/send-sqaure-2">
    <g id="send-sqaure-2">
      <path id="Vector" d="M0,0H24V24H0Z" fill="none" opacity="0"/>
      <path id="Vector-2" data-name="Vector" d="M14.18,0H5.81C2.17,0,0,2.17,0,5.81v8.37c0,3.64,2.17,5.81,5.81,5.81h8.37c3.64,0,5.81-2.17,5.81-5.81V5.81C19.99,2.17,17.82,0,14.18,0Z" transform="translate(2.01 2)" opacity="0.4"/>
      <g id="Group">
        <path id="Vector-3" data-name="Vector" d="M.757,7.17a.742.742,0,0,0,.53-.22l4.38-4.38V5a.75.75,0,0,0,1.5,0V.76a.753.753,0,0,0-.06-.29A.782.782,0,0,0,6.7.06.717.717,0,0,0,6.408,0H2.167a.755.755,0,0,0-.75.75.755.755,0,0,0,.75.75H4.6L.218,5.88a.76.76,0,0,0,.54,1.29Z" transform="translate(8.413 6.92)"/>
        <path id="Vector-4" data-name="Vector" d="M13.468.508a.749.749,0,0,0-.95-.47,18.333,18.333,0,0,1-11.53,0,.749.749,0,0,0-.48,1.42,19.744,19.744,0,0,0,6.24,1.01,19.744,19.744,0,0,0,6.24-1.01A.754.754,0,0,0,13.468.508Z" transform="translate(5.242 15.772)"/>
      </g>
    </g>
  </g>
</svg>
