<svg xmlns="http://www.w3.org/2000/svg" width="24" height="24" viewBox="0 0 24 24">
  <g id="invoices" transform="translate(-120 -144)">
    <g id="receipt-text_bulk" data-name="receipt-text/bulk" transform="translate(120 144)">
      <g id="vuesax_bulk_receipt-text" data-name="vuesax/bulk/receipt-text">
        <g id="receipt-text">
          <path id="Vector" d="M0,0H24V24H0Z" fill="none" opacity="0"/>
          <path id="Vector-2" data-name="Vector" d="M6,4V6.42A2.4,2.4,0,0,1,3.42,9H0V2.01A2.019,2.019,0,0,1,2.02,0,3.995,3.995,0,0,1,6,4Z" transform="translate(16 2)"/>
          <path id="Vector-3" data-name="Vector" d="M0,5V19a1,1,0,0,0,1.6.8l1.71-1.28a1.007,1.007,0,0,1,1.32.1l1.66,1.67a1.008,1.008,0,0,0,1.42,0l1.68-1.68a.991.991,0,0,1,1.3-.09L12.4,19.8A1,1,0,0,0,14,19V2a2.006,2.006,0,0,1,2-2H4C1,0,0,1.79,0,4Z" transform="translate(2 2)" opacity="0.4"/>
          <g id="Group">
            <path id="Vector-4" data-name="Vector" d="M6.75,1.5h-6A.755.755,0,0,1,0,.75.755.755,0,0,1,.75,0h6A.755.755,0,0,1,7.5.75.755.755,0,0,1,6.75,1.5Z" transform="translate(5.25 8.25)"/>
          </g>
          <g id="Group-2" data-name="Group">
            <path id="Vector-5" data-name="Vector" d="M5.25,1.5H.75A.755.755,0,0,1,0,.75.755.755,0,0,1,.75,0h4.5A.755.755,0,0,1,6,.75.755.755,0,0,1,5.25,1.5Z" transform="translate(6 12.25)"/>
          </g>
        </g>
      </g>
    </g>
  </g>
</svg>
