<svg xmlns="http://www.w3.org/2000/svg" width="24" height="24" viewBox="0 0 24 24">
  <g id="print" transform="translate(0.373)">
    <g id="printer_bulk" data-name="printer/bulk" transform="translate(-0.373)">
      <g id="vuesax_bulk_printer" data-name="vuesax/bulk/printer">
        <g id="printer">
          <path id="Vector" d="M8,0V4A3,3,0,0,1,5,7H3A3,3,0,0,1,0,4V0Z" transform="translate(8 15)"/>
          <path id="Vector-2" data-name="Vector" d="M0,5V3A3,3,0,0,1,3,0H7a3,3,0,0,1,3,3V5Z" transform="translate(7 2)"/>
          <path id="Vector-3" data-name="Vector" d="M15,0H3A2.652,2.652,0,0,0,0,3V8a2.652,2.652,0,0,0,3,3H5V8h8v3h2a2.652,2.652,0,0,0,3-3V3A2.652,2.652,0,0,0,15,0ZM7,4.75H4a.75.75,0,0,1,0-1.5H7a.75.75,0,0,1,0,1.5Z" transform="translate(3 7)" opacity="0.4"/>
          <path id="Vector-4" data-name="Vector" d="M4.5.75a.755.755,0,0,1-.75.75h-3A.755.755,0,0,1,0,.75.755.755,0,0,1,.75,0h3A.755.755,0,0,1,4.5.75Z" transform="translate(6.25 10.25)"/>
          <path id="Vector-5" data-name="Vector" d="M10.75,1.5H.75A.755.755,0,0,1,0,.75.755.755,0,0,1,.75,0h10a.755.755,0,0,1,.75.75A.755.755,0,0,1,10.75,1.5Z" transform="translate(6.25 14.25)"/>
          <path id="Vector-6" data-name="Vector" d="M0,0H24V24H0Z" fill="none" opacity="0"/>
        </g>
      </g>
    </g>
  </g>
</svg>
