<svg xmlns="http://www.w3.org/2000/svg" width="24" height="24" viewBox="0 0 24 24">
  <g id="timetable" transform="translate(-203 -243)">
    <g id="calendar-2_bulk" data-name="calendar-2/bulk" transform="translate(203 243)">
      <g id="vuesax_bulk_calendar-2" data-name="vuesax/bulk/calendar-2">
        <g id="calendar-2">
          <path id="Vector" d="M0,0H24V24H0Z" fill="none" opacity="0"/>
          <g id="Group">
            <path id="Vector-2" data-name="Vector" d="M13.711,2.31V.75a.75.75,0,0,0-1.5,0v1.5h-6.5V.75a.75.75,0,0,0-1.5,0V2.31A4.248,4.248,0,0,0,0,6.56a.5.5,0,0,0,.5.53h16.92a.5.5,0,0,0,.5-.53A4.248,4.248,0,0,0,13.711,2.31Z" transform="translate(3.039 1.25)"/>
            <path id="Vector-3" data-name="Vector" d="M17,0a1,1,0,0,1,1,1V7.16c0,3-1.5,5-5,5H5c-3.5,0-5-2-5-5V1A1,1,0,0,1,1,0Z" transform="translate(3 9.84)" opacity="0.4"/>
          </g>
          <g id="Group-2" data-name="Group">
            <path id="Vector-4" data-name="Vector" d="M1,2a1,1,0,0,1-.38-.08,1.155,1.155,0,0,1-.33-.21,1.155,1.155,0,0,1-.21-.33A1,1,0,0,1,0,1,1,1,0,0,1,.08.615,1.155,1.155,0,0,1,.29.285,1.155,1.155,0,0,1,.62.075a1,1,0,0,1,.76,0,1.155,1.155,0,0,1,.33.21,1.155,1.155,0,0,1,.21.33A1,1,0,0,1,2,1a1,1,0,0,1-.08.38,1.155,1.155,0,0,1-.21.33,1.155,1.155,0,0,1-.33.21A1,1,0,0,1,1,2Z" transform="translate(7.5 13.005)"/>
          </g>
          <g id="Group-3" data-name="Group">
            <path id="Vector-5" data-name="Vector" d="M1,2a1,1,0,0,1-.38-.08,1.155,1.155,0,0,1-.33-.21A1.052,1.052,0,0,1,0,1,1.052,1.052,0,0,1,.29.293,1.155,1.155,0,0,1,.62.082a.916.916,0,0,1,.76,0,1.155,1.155,0,0,1,.33.21A1.052,1.052,0,0,1,2,1a1.052,1.052,0,0,1-.29.71,1.155,1.155,0,0,1-.33.21A1,1,0,0,1,1,2Z" transform="translate(11 12.997)"/>
          </g>
          <g id="Group-4" data-name="Group">
            <path id="Vector-6" data-name="Vector" d="M1,2a1,1,0,0,1-.38-.08,1.155,1.155,0,0,1-.33-.21A1.052,1.052,0,0,1,0,1,1.052,1.052,0,0,1,.29.285,1.155,1.155,0,0,1,.62.075a1,1,0,0,1,.76,0,1.155,1.155,0,0,1,.33.21A1.052,1.052,0,0,1,2,1a1.052,1.052,0,0,1-.29.71,1.155,1.155,0,0,1-.33.21A1,1,0,0,1,1,2Z" transform="translate(7.5 16.505)"/>
          </g>
        </g>
      </g>
    </g>
  </g>
</svg>
