<svg xmlns="http://www.w3.org/2000/svg" width="20.008" height="20.008" viewBox="0 0 20.008 20.008">
  <g id="Group_4717" data-name="Group 4717" transform="translate(-414 -220)">
    <g id="profile-circle_bulk" data-name="profile-circle/bulk" transform="translate(414 220)">
      <g id="vuesax_bulk_profile-circle" data-name="vuesax/bulk/profile-circle">
        <g id="profile-circle">
          <path id="Vector" d="M16.673,8.337A8.337,8.337,0,1,1,8.337,0,8.337,8.337,0,0,1,16.673,8.337Z" transform="translate(1.667 1.676)" opacity="0.4"/>
          <path id="Vector-2" data-name="Vector" d="M3.126,0a3.122,3.122,0,0,0-.042,6.244h.15A3.123,3.123,0,0,0,3.126,0Z" transform="translate(6.878 5.786)"/>
          <path id="Vector-3" data-name="Vector" d="M11.3,3.122A8.316,8.316,0,0,1,5.652,5.331,8.316,8.316,0,0,1,0,3.122,3.564,3.564,0,0,1,1.534,1.138a8.021,8.021,0,0,1,8.237,0A3.527,3.527,0,0,1,11.3,3.122Z" transform="translate(4.352 13.018)"/>
          <path id="Vector-4" data-name="Vector" d="M0,0H20.008V20.008H0Z" fill="none" opacity="0"/>
        </g>
      </g>
    </g>
  </g>
</svg>
