<svg xmlns="http://www.w3.org/2000/svg" width="21.171" height="20" viewBox="0 0 21.171 20">
  <path id="word" d="M21.125,8.4v3.169a.451.451,0,0,1-.446.449h-.687V7.948h.692a.428.428,0,0,1,.31.132.441.441,0,0,1,.132.314v0Zm-.448,4.088a.45.45,0,0,1,.447.446v3.187a.441.441,0,0,1-.441.441h-.693V12.482h.688Zm0-9.077a.515.515,0,0,1,.339.132h0a.408.408,0,0,1,.155.318V7.037a.4.4,0,0,1-.154.317h0a.537.537,0,0,1-.338.119H19.54v9.779a.37.37,0,0,1-.138.287h0a.537.537,0,0,1-.321.106h-5.91v-2h4.593v-.952h-4.6V13.572h4.593v-.9H13.168V11.52h4.593v-.887H13.168V9.509h4.593V8.622H13.168V7.471h4.593v-.9H13.168V5.446h4.593V4.507H13.168V2.272h6.075a.52.52,0,0,1,.148.118h0a.507.507,0,0,1,.15.3V3.41h1.136ZM12.037,0V20L0,17.922V2.132L12.038,0ZM8.6,5.928l-1.412.093V8.648q-.024,2.308,0,2.665L4.377,6.18,2.94,6.237V13.52l1.124.088V8.236L7.1,13.762l1.5.088V5.928Z" fill="#2e3192"/>
</svg>
