<svg xmlns="http://www.w3.org/2000/svg" xmlns:xlink="http://www.w3.org/1999/xlink" width="50" height="50" viewBox="0 0 50 50">
  <defs>
    <clipPath id="clip-path">
      <circle id="Ellipse_2" data-name="Ellipse 2" cx="25" cy="25" r="25" transform="translate(340 14)" fill="#2c3691"/>
    </clipPath>
  </defs>
  <g id="Mask_Group_1" data-name="Mask Group 1" transform="translate(-340 -14)" clip-path="url(#clip-path)">
    <g id="Group_4275" data-name="Group 4275" transform="translate(340 16.007)">
      <path id="Path_85" data-name="Path 85" d="M50.665,31.507c.241-3.246.639-8.3.639-8.3,2.93-6.552-1.774-16.124-5.79-13.392-4.3-5.737-18.739.687-14.39,13.3a40.118,40.118,0,0,1-.575,8.151C29.46,36.875,27.5,42.928,29.311,44.317c2.555,1.955,21.354,2.173,22.5.712,1.857-2.368-1.387-10.276-1.146-13.522" transform="translate(-16.572 -4.466)" fill="#dd2034"/>
      <path id="Path_86" data-name="Path 86" d="M49.588,84.637c-1.552-1.934-13.835-6.182-13.835-6.182s-12.026,4.7-13.837,6.182S19.427,95.5,19.427,95.5H51.722s-.583-8.931-2.134-10.866" transform="translate(-11.268 -45.51)" fill="#2e3192"/>
      <path id="Path_87" data-name="Path 87" d="M56.77,75.845s-.47,2.279-3.805,2.279-3.8-2.279-3.8-2.279a5.063,5.063,0,0,0,0-4.006c-.927-2.163,8.743-2.6,7.609,0s0,4.006,0,4.006" transform="translate(-28.479 -40.633)" fill="#d79563"/>
      <path id="Path_88" data-name="Path 88" d="M79.037,45.822c0,1.717-1.217,4.075-2.038,4.075s-1.485-1.392-1.485-3.109A3.685,3.685,0,0,1,77,43.681c.795-.621,2.038,0,2.038,2.141" transform="translate(-43.799 -25.206)" fill="#f9ab78"/>
      <path id="Path_89" data-name="Path 89" d="M33.278,45.822c0,1.717,1.218,4.075,2.038,4.075S36.8,48.505,36.8,46.788a3.686,3.686,0,0,0-1.485-3.107c-.794-.621-2.038,0-2.038,2.141" transform="translate(-19.301 -25.206)" fill="#f9ab78"/>
      <path id="Path_90" data-name="Path 90" d="M47.187,16.692c-5.767,0-8.317,4.041-8.317,10.066V34.3c0,5.249,6.066,9.738,7.982,9.738S55.5,38.794,55.5,33.822V26.758c0-6.026-2.55-10.066-8.317-10.066" transform="translate(-22.545 -9.683)" fill="#f9ab78"/>
      <path id="Path_91" data-name="Path 91" d="M54.63,30.024l.243-3.13c1.257-6.092-2.739-11.986-8.506-11.986s-10.239,6.43-8.7,12.523L38,30.991a4.268,4.268,0,0,0,1.3-2.624c.149-1.293.646-6.517.646-6.517l.633,3.084,6.956.457,1.19-2.441L49.2,25.5l2.211.144,1.423-4.27s.2,3.708.642,6.5c.277,1.747,1.15,2.147,1.15,2.147" transform="translate(-21.672 -8.648)" fill="#dd2034"/>
    </g>
  </g>
</svg>
